# xmcd
#
# Track frame offsets:
#	150
#	23850
#	49220
#	67867
#	87545
#	136167
#	172787
#	196557
#	220355
#	237440
#	260755
#	300730
#	310757
#	324090
#
# Disc length: 4607 seconds
#
# Revision: 0
# Processed by: cddbd v1.4PL0 Copyright (c) Steve Scherf et al.
# Submitted via: audiograbber 1.80
#
DISCID=b811fd0e
DTITLE=Magyar Atom Blues Brothers - Jimi Hendrix emlekkoncert
DYEAR=1900
DGENRE=
TTITLE0=Wild Thing
TTITLE1=Purple Haze
TTITLE2=Wait Until Tomorrow
TTITLE3=Manic Depression
TTITLE4=Red House
TTITLE5=Who Knows
TTITLE6=Foxy Lady
TTITLE7=Tobacco Road
TTITLE8=Highway Chile
TTITLE9=Little Wing
TTITLE10=Medley
TTITLE11=Mercedes Benz
TTITLE12=Fire
TTITLE13=Come On
EXTD=
EXTT0=
EXTT1=
EXTT2=
EXTT3=
EXTT4=
EXTT5=
EXTT6=
EXTT7=
EXTT8=
EXTT9=
EXTT10=
EXTT11=
EXTT12=
EXTT13=
PLAYORDER=
